<mxfile host="65bd71144e">
    <diagram id="HLEwpZdKR18EzE0iEeVe" name="Page-1">
        <mxGraphModel dx="3370" dy="1987" grid="1" gridSize="10" guides="1" tooltips="1" connect="1" arrows="1" fold="1" page="0" pageScale="1" pageWidth="1100" pageHeight="850" background="none" math="0" shadow="0">
            <root>
                <mxCell id="0"/>
                <mxCell id="1" parent="0"/>
                <mxCell id="112" style="edgeStyle=none;html=1;endArrow=classic;endFill=1;" edge="1" parent="1" source="2" target="51">
                    <mxGeometry relative="1" as="geometry"/>
                </mxCell>
                <mxCell id="114" style="edgeStyle=none;html=1;endArrow=classic;endFill=1;" edge="1" parent="1" source="2" target="68">
                    <mxGeometry relative="1" as="geometry"/>
                </mxCell>
                <mxCell id="2" value="User" style="swimlane;" parent="1" vertex="1">
                    <mxGeometry x="-900" y="-520" width="250" height="310" as="geometry"/>
                </mxCell>
                <mxCell id="3" value="- income : List&amp;lt;IncomeItem&amp;gt;" style="text;html=1;align=center;verticalAlign=middle;resizable=0;points=[];autosize=1;strokeColor=none;fillColor=none;" parent="2" vertex="1">
                    <mxGeometry y="30" width="170" height="30" as="geometry"/>
                </mxCell>
                <mxCell id="4" value="- expenses : List&amp;lt;ExpenseItem&amp;gt;" style="text;html=1;align=center;verticalAlign=middle;resizable=0;points=[];autosize=1;strokeColor=none;fillColor=none;" parent="2" vertex="1">
                    <mxGeometry y="50" width="190" height="30" as="geometry"/>
                </mxCell>
                <mxCell id="5" value="- savingsGoal: SavingsGoal" style="text;html=1;align=center;verticalAlign=middle;resizable=0;points=[];autosize=1;strokeColor=none;fillColor=none;" parent="2" vertex="1">
                    <mxGeometry y="70" width="170" height="30" as="geometry"/>
                </mxCell>
                <mxCell id="6" value="- alertSettings: AlertSettings" style="text;html=1;align=center;verticalAlign=middle;resizable=0;points=[];autosize=1;strokeColor=none;fillColor=none;" parent="2" vertex="1">
                    <mxGeometry y="90" width="170" height="30" as="geometry"/>
                </mxCell>
                <mxCell id="7" value="" style="shape=link;html=1;" parent="2" edge="1">
                    <mxGeometry width="100" relative="1" as="geometry">
                        <mxPoint y="130" as="sourcePoint"/>
                        <mxPoint x="250" y="130" as="targetPoint"/>
                    </mxGeometry>
                </mxCell>
                <mxCell id="8" value="+&amp;nbsp; addIncomeItem(IncomeItem item)" style="text;html=1;align=center;verticalAlign=middle;resizable=0;points=[];autosize=1;strokeColor=none;fillColor=none;" parent="2" vertex="1">
                    <mxGeometry x="-10" y="140" width="220" height="30" as="geometry"/>
                </mxCell>
                <mxCell id="14" value="+ addExpenseItem(ExpenseItem item)" style="text;html=1;align=center;verticalAlign=middle;resizable=0;points=[];autosize=1;strokeColor=none;fillColor=none;" parent="2" vertex="1">
                    <mxGeometry x="-10" y="160" width="230" height="30" as="geometry"/>
                </mxCell>
                <mxCell id="15" value="+ setSavingsGoal(SavingsGoal goal)" style="text;html=1;align=center;verticalAlign=middle;resizable=0;points=[];autosize=1;strokeColor=none;fillColor=none;" parent="2" vertex="1">
                    <mxGeometry x="-5" y="180" width="220" height="30" as="geometry"/>
                </mxCell>
                <mxCell id="16" value="+updateAlertSettings(AlertSettings settings)" style="text;html=1;align=center;verticalAlign=middle;resizable=0;points=[];autosize=1;strokeColor=none;fillColor=none;" parent="2" vertex="1">
                    <mxGeometry x="-10" y="200" width="260" height="30" as="geometry"/>
                </mxCell>
                <mxCell id="17" value="+getTotalIncome(): double" style="text;html=1;align=center;verticalAlign=middle;resizable=0;points=[];autosize=1;strokeColor=none;fillColor=none;" parent="2" vertex="1">
                    <mxGeometry x="-5" y="220" width="160" height="30" as="geometry"/>
                </mxCell>
                <mxCell id="18" value="+getTotalExpenses(): double" style="text;html=1;align=center;verticalAlign=middle;resizable=0;points=[];autosize=1;strokeColor=none;fillColor=none;" parent="2" vertex="1">
                    <mxGeometry x="-10" y="240" width="180" height="30" as="geometry"/>
                </mxCell>
                <mxCell id="19" value="+getSavingsProgress(): double" style="text;html=1;align=center;verticalAlign=middle;resizable=0;points=[];autosize=1;strokeColor=none;fillColor=none;" parent="2" vertex="1">
                    <mxGeometry x="-10" y="260" width="190" height="30" as="geometry"/>
                </mxCell>
                <mxCell id="109" style="edgeStyle=none;html=1;endArrow=diamond;endFill=1;" edge="1" parent="1" source="24">
                    <mxGeometry relative="1" as="geometry">
                        <mxPoint x="-760" y="-210" as="targetPoint"/>
                        <Array as="points">
                            <mxPoint x="-790" y="-170"/>
                        </Array>
                    </mxGeometry>
                </mxCell>
                <mxCell id="24" value="IncomeItem" style="swimlane;" parent="1" vertex="1">
                    <mxGeometry x="-850" y="-130" width="200" height="200" as="geometry"/>
                </mxCell>
                <mxCell id="27" value="- source: String" style="text;html=1;align=center;verticalAlign=middle;resizable=0;points=[];autosize=1;strokeColor=none;fillColor=none;" parent="24" vertex="1">
                    <mxGeometry y="15" width="100" height="30" as="geometry"/>
                </mxCell>
                <mxCell id="28" value="- amount: double" style="text;html=1;align=center;verticalAlign=middle;resizable=0;points=[];autosize=1;strokeColor=none;fillColor=none;" parent="24" vertex="1">
                    <mxGeometry x="-5" y="35" width="110" height="30" as="geometry"/>
                </mxCell>
                <mxCell id="29" value="- date: LocalDate" style="text;html=1;align=center;verticalAlign=middle;resizable=0;points=[];autosize=1;strokeColor=none;fillColor=none;" parent="24" vertex="1">
                    <mxGeometry y="55" width="110" height="30" as="geometry"/>
                </mxCell>
                <mxCell id="30" value="+ getSource(): String" style="text;html=1;align=center;verticalAlign=middle;resizable=0;points=[];autosize=1;strokeColor=none;fillColor=none;" parent="24" vertex="1">
                    <mxGeometry y="105" width="130" height="30" as="geometry"/>
                </mxCell>
                <mxCell id="31" value="+ getAmount(): double" style="text;html=1;align=center;verticalAlign=middle;resizable=0;points=[];autosize=1;strokeColor=none;fillColor=none;" parent="24" vertex="1">
                    <mxGeometry x="-5" y="125" width="140" height="30" as="geometry"/>
                </mxCell>
                <mxCell id="32" value="+ getDate(): LocalDate" style="text;html=1;align=center;verticalAlign=middle;resizable=0;points=[];autosize=1;strokeColor=none;fillColor=none;" parent="24" vertex="1">
                    <mxGeometry x="-5" y="145" width="140" height="30" as="geometry"/>
                </mxCell>
                <mxCell id="35" value="" style="shape=link;html=1;" parent="24" edge="1">
                    <mxGeometry width="100" relative="1" as="geometry">
                        <mxPoint y="95" as="sourcePoint"/>
                        <mxPoint x="200.0000000000001" y="95" as="targetPoint"/>
                    </mxGeometry>
                </mxCell>
                <mxCell id="110" style="edgeStyle=none;html=1;endArrow=diamond;endFill=1;" edge="1" parent="1" source="33">
                    <mxGeometry relative="1" as="geometry">
                        <mxPoint x="-890" y="-210" as="targetPoint"/>
                    </mxGeometry>
                </mxCell>
                <mxCell id="33" value="ExpenseItem" style="swimlane;" parent="1" vertex="1">
                    <mxGeometry x="-1150" y="-130" width="200" height="200" as="geometry"/>
                </mxCell>
                <mxCell id="25" value="" style="shape=link;html=1;" parent="33" edge="1">
                    <mxGeometry width="100" relative="1" as="geometry">
                        <mxPoint y="80" as="sourcePoint"/>
                        <mxPoint x="200" y="80" as="targetPoint"/>
                    </mxGeometry>
                </mxCell>
                <mxCell id="34" value="- source: String" style="text;html=1;align=center;verticalAlign=middle;resizable=0;points=[];autosize=1;strokeColor=none;fillColor=none;" parent="33" vertex="1">
                    <mxGeometry y="17" width="100" height="30" as="geometry"/>
                </mxCell>
                <mxCell id="36" value="- amount: double" style="text;html=1;align=center;verticalAlign=middle;resizable=0;points=[];autosize=1;strokeColor=none;fillColor=none;" parent="33" vertex="1">
                    <mxGeometry y="32" width="110" height="30" as="geometry"/>
                </mxCell>
                <mxCell id="37" value="- date: LocalDate" style="text;html=1;align=center;verticalAlign=middle;resizable=0;points=[];autosize=1;strokeColor=none;fillColor=none;" parent="33" vertex="1">
                    <mxGeometry y="50" width="110" height="30" as="geometry"/>
                </mxCell>
                <mxCell id="38" value="+ getCategory(): string" style="text;html=1;align=center;verticalAlign=middle;resizable=0;points=[];autosize=1;strokeColor=none;fillColor=none;" parent="33" vertex="1">
                    <mxGeometry x="-5" y="85" width="140" height="30" as="geometry"/>
                </mxCell>
                <mxCell id="39" value="+ getAmount(): double" style="text;html=1;align=center;verticalAlign=middle;resizable=0;points=[];autosize=1;strokeColor=none;fillColor=none;" parent="33" vertex="1">
                    <mxGeometry x="-5" y="110" width="140" height="30" as="geometry"/>
                </mxCell>
                <mxCell id="40" value="+ getDate(): LocalDate" style="text;html=1;align=center;verticalAlign=middle;resizable=0;points=[];autosize=1;strokeColor=none;fillColor=none;" parent="33" vertex="1">
                    <mxGeometry x="-5" y="130" width="140" height="30" as="geometry"/>
                </mxCell>
                <mxCell id="51" value="SavingsGoal" style="swimlane;" vertex="1" parent="1">
                    <mxGeometry x="-578.5" y="-150" width="245" height="170" as="geometry"/>
                </mxCell>
                <mxCell id="52" value="- goalAmount: double" style="text;html=1;align=center;verticalAlign=middle;resizable=0;points=[];autosize=1;strokeColor=none;fillColor=none;" vertex="1" parent="51">
                    <mxGeometry x="-5" y="20" width="140" height="30" as="geometry"/>
                </mxCell>
                <mxCell id="53" value="+ getGoalAmount(): double" style="text;html=1;align=center;verticalAlign=middle;resizable=0;points=[];autosize=1;strokeColor=none;fillColor=none;" vertex="1" parent="51">
                    <mxGeometry x="-5" y="70" width="170" height="30" as="geometry"/>
                </mxCell>
                <mxCell id="55" value="+ setGoalAmount(double goalAmount)" style="text;html=1;align=center;verticalAlign=middle;resizable=0;points=[];autosize=1;strokeColor=none;fillColor=none;" vertex="1" parent="51">
                    <mxGeometry x="-5" y="110" width="230" height="30" as="geometry"/>
                </mxCell>
                <mxCell id="56" value="" style="shape=link;html=1;" edge="1" parent="51">
                    <mxGeometry width="100" relative="1" as="geometry">
                        <mxPoint x="2" y="70" as="sourcePoint"/>
                        <mxPoint x="242" y="70" as="targetPoint"/>
                    </mxGeometry>
                </mxCell>
                <mxCell id="57" value="- goalPercentage: double" style="text;html=1;align=center;verticalAlign=middle;resizable=0;points=[];autosize=1;strokeColor=none;fillColor=none;" vertex="1" parent="51">
                    <mxGeometry x="-5" y="40" width="160" height="30" as="geometry"/>
                </mxCell>
                <mxCell id="59" value="+ setGoalPercentage(double goalPercentage)" style="text;html=1;align=center;verticalAlign=middle;resizable=0;points=[];autosize=1;strokeColor=none;fillColor=none;" vertex="1" parent="51">
                    <mxGeometry x="-12.5" y="130" width="270" height="30" as="geometry"/>
                </mxCell>
                <mxCell id="54" value="+ getGoalPercentage(): double" style="text;html=1;align=center;verticalAlign=middle;resizable=0;points=[];autosize=1;strokeColor=none;fillColor=none;" vertex="1" parent="51">
                    <mxGeometry x="-5" y="90" width="190" height="30" as="geometry"/>
                </mxCell>
                <mxCell id="61" value="AlertSettings" style="swimlane;" vertex="1" parent="1">
                    <mxGeometry x="-500" y="-440" width="245" height="240" as="geometry"/>
                </mxCell>
                <mxCell id="62" value="- enabled : boolean" style="text;html=1;align=center;verticalAlign=middle;resizable=0;points=[];autosize=1;strokeColor=none;fillColor=none;" vertex="1" parent="61">
                    <mxGeometry y="20" width="130" height="30" as="geometry"/>
                </mxCell>
                <mxCell id="63" value="+ isEnabled(): boolean" style="text;html=1;align=center;verticalAlign=middle;resizable=0;points=[];autosize=1;strokeColor=none;fillColor=none;" vertex="1" parent="61">
                    <mxGeometry x="-5" y="90" width="140" height="30" as="geometry"/>
                </mxCell>
                <mxCell id="64" value="+ getSpendingLimit(): double" style="text;html=1;align=center;verticalAlign=middle;resizable=0;points=[];autosize=1;strokeColor=none;fillColor=none;" vertex="1" parent="61">
                    <mxGeometry x="-8" y="107" width="180" height="30" as="geometry"/>
                </mxCell>
                <mxCell id="65" value="" style="shape=link;html=1;" edge="1" parent="61">
                    <mxGeometry width="100" relative="1" as="geometry">
                        <mxPoint y="90" as="sourcePoint"/>
                        <mxPoint x="245" y="90" as="targetPoint"/>
                    </mxGeometry>
                </mxCell>
                <mxCell id="66" value="- spendingLimit: double" style="text;html=1;align=center;verticalAlign=middle;resizable=0;points=[];autosize=1;strokeColor=none;fillColor=none;" vertex="1" parent="61">
                    <mxGeometry y="40" width="150" height="30" as="geometry"/>
                </mxCell>
                <mxCell id="68" value="- goalThreshold: double" style="text;html=1;align=center;verticalAlign=middle;resizable=0;points=[];autosize=1;strokeColor=none;fillColor=none;" vertex="1" parent="61">
                    <mxGeometry y="60" width="150" height="30" as="geometry"/>
                </mxCell>
                <mxCell id="70" value="+ setEnabled(boolean enabled)" style="text;html=1;align=center;verticalAlign=middle;resizable=0;points=[];autosize=1;strokeColor=none;fillColor=none;" vertex="1" parent="61">
                    <mxGeometry x="-8" y="146" width="190" height="30" as="geometry"/>
                </mxCell>
                <mxCell id="67" value="+ getGoalThreshold(): double" style="text;html=1;align=center;verticalAlign=middle;resizable=0;points=[];autosize=1;strokeColor=none;fillColor=none;" vertex="1" parent="61">
                    <mxGeometry x="-8" y="125" width="180" height="30" as="geometry"/>
                </mxCell>
                <mxCell id="71" value="+ setSpendingLimit(double limit)" style="text;html=1;align=center;verticalAlign=middle;resizable=0;points=[];autosize=1;strokeColor=none;fillColor=none;" vertex="1" parent="61">
                    <mxGeometry x="-8" y="170" width="190" height="30" as="geometry"/>
                </mxCell>
                <mxCell id="72" value="+ setGoalThreshold(double threshold)" style="text;html=1;align=center;verticalAlign=middle;resizable=0;points=[];autosize=1;strokeColor=none;fillColor=none;" vertex="1" parent="61">
                    <mxGeometry x="-12" y="190" width="230" height="30" as="geometry"/>
                </mxCell>
                <mxCell id="73" value="Data Manager" style="swimlane;" vertex="1" parent="1">
                    <mxGeometry x="-170" y="-480" width="300" height="100" as="geometry"/>
                </mxCell>
                <mxCell id="75" value="+ saveUserData(User user, String filePath): void" style="text;html=1;align=center;verticalAlign=middle;resizable=0;points=[];autosize=1;strokeColor=none;fillColor=none;" vertex="1" parent="73">
                    <mxGeometry x="-5" y="30" width="280" height="30" as="geometry"/>
                </mxCell>
                <mxCell id="76" value="+ loadUserData(String filePath): User" style="text;html=1;align=center;verticalAlign=middle;resizable=0;points=[];autosize=1;strokeColor=none;fillColor=none;" vertex="1" parent="73">
                    <mxGeometry y="50" width="220" height="30" as="geometry"/>
                </mxCell>
                <mxCell id="117" style="edgeStyle=none;html=1;entryX=0.5;entryY=1;entryDx=0;entryDy=0;endArrow=classic;endFill=1;" edge="1" parent="1" source="80" target="73">
                    <mxGeometry relative="1" as="geometry"/>
                </mxCell>
                <mxCell id="118" style="edgeStyle=none;html=1;entryX=0;entryY=1;entryDx=0;entryDy=0;endArrow=classic;endFill=1;" edge="1" parent="1" source="80" target="92">
                    <mxGeometry relative="1" as="geometry"/>
                </mxCell>
                <mxCell id="119" style="edgeStyle=none;html=1;endArrow=classic;endFill=1;" edge="1" parent="1" source="80" target="106">
                    <mxGeometry relative="1" as="geometry"/>
                </mxCell>
                <mxCell id="80" value="CLI" style="swimlane;" vertex="1" parent="1">
                    <mxGeometry x="-170" y="-340" width="277" height="250" as="geometry"/>
                </mxCell>
                <mxCell id="82" value="+ displayMainMenu(): void" style="text;html=1;align=center;verticalAlign=middle;resizable=0;points=[];autosize=1;strokeColor=none;fillColor=none;" vertex="1" parent="80">
                    <mxGeometry y="30" width="160" height="30" as="geometry"/>
                </mxCell>
                <mxCell id="83" value="+ manageIncome(User user): void" style="text;html=1;align=center;verticalAlign=middle;resizable=0;points=[];autosize=1;strokeColor=none;fillColor=none;" vertex="1" parent="80">
                    <mxGeometry x="-5" y="70" width="210" height="30" as="geometry"/>
                </mxCell>
                <mxCell id="87" value="+ viewFinancialSummary(User user): void" style="text;html=1;align=center;verticalAlign=middle;resizable=0;points=[];autosize=1;strokeColor=none;fillColor=none;" vertex="1" parent="80">
                    <mxGeometry x="-6" y="110" width="250" height="30" as="geometry"/>
                </mxCell>
                <mxCell id="88" value="+ processUserInput(User user): void" style="text;html=1;align=center;verticalAlign=middle;resizable=0;points=[];autosize=1;strokeColor=none;fillColor=none;" vertex="1" parent="80">
                    <mxGeometry x="-5" y="50" width="220" height="30" as="geometry"/>
                </mxCell>
                <mxCell id="89" value="+ manageExpenses(User user): void" style="text;html=1;align=center;verticalAlign=middle;resizable=0;points=[];autosize=1;strokeColor=none;fillColor=none;" vertex="1" parent="80">
                    <mxGeometry x="-3" y="90" width="220" height="30" as="geometry"/>
                </mxCell>
                <mxCell id="91" value="+ exportData(User user): void" style="text;html=1;align=center;verticalAlign=middle;resizable=0;points=[];autosize=1;strokeColor=none;fillColor=none;" vertex="1" parent="80">
                    <mxGeometry y="150" width="180" height="30" as="geometry"/>
                </mxCell>
                <mxCell id="90" value="+ manageAlertsAndNotifications(User user: void)" style="text;html=1;align=center;verticalAlign=middle;resizable=0;points=[];autosize=1;strokeColor=none;fillColor=none;" vertex="1" parent="80">
                    <mxGeometry x="-6" y="130" width="280" height="30" as="geometry"/>
                </mxCell>
                <mxCell id="92" value="ReportGenerator" style="swimlane;" vertex="1" parent="1">
                    <mxGeometry x="180" y="-440" width="233.5" height="90" as="geometry"/>
                </mxCell>
                <mxCell id="93" value="+ generateCSVReport(User user): String" style="text;html=1;align=center;verticalAlign=middle;resizable=0;points=[];autosize=1;strokeColor=none;fillColor=none;" vertex="1" parent="92">
                    <mxGeometry x="-3" y="30" width="240" height="30" as="geometry"/>
                </mxCell>
                <mxCell id="99" value="AlertManager" style="swimlane;" vertex="1" parent="1">
                    <mxGeometry x="200" y="-280" width="295" height="100" as="geometry"/>
                </mxCell>
                <mxCell id="105" value="+ checkSpendingsAlert(User user): Optional&amp;lt;Alert&amp;gt;" style="text;html=1;align=center;verticalAlign=middle;resizable=0;points=[];autosize=1;strokeColor=none;fillColor=none;" vertex="1" parent="99">
                    <mxGeometry x="-10" y="25" width="300" height="30" as="geometry"/>
                </mxCell>
                <mxCell id="106" value="+ checkSavingsGoalAlert(User user): Optional&amp;lt;Alert&amp;gt;" style="text;html=1;align=center;verticalAlign=middle;resizable=0;points=[];autosize=1;strokeColor=none;fillColor=none;" vertex="1" parent="99">
                    <mxGeometry x="-9" y="50" width="310" height="30" as="geometry"/>
                </mxCell>
            </root>
        </mxGraphModel>
    </diagram>
</mxfile>